<?xml  version="1.0" encoding="UTF-8"?>
<!DOCTYPE svg PUBLIC "-//W3C//DTD SVG 1.0//EN" "http://www.w3.org/TR/2001/REC-SVG-20010904/DTD/svg10.dtd" >
<svg xmlns="http://www.w3.org/2000/svg" >
<metadata>
<version>1.0</version>
<id><![CDATA[Corporate E W01 Regular]]></id>
<vendor>Monotype Imaging Inc.</vendor>
<credits>
<name>Fonts.com WebFonts</name>
<URL>http://webfonts.fonts.com</URL>
<role>Home of the Web fonts</role>
</credits>
<license>
<URL>http://webfonts.fonts.com/Legal</URL>
</license>
<copyright><![CDATA[(URW)++,Copyright 2009 by (URW)++ Design & Development]]></copyright>
<trademark><![CDATA[Please refer to the Copyright section for the font trademark attribution notices.]]></trademark>
<licensee>
<name></name>
</licensee>
</metadata>
<defs >
<font horiz-adv-x="486" id="3c6cfeb3-9a4d-4567-9057-0a21657c8a09">
<font-face font-family="" panose-1="0 0 5 0 0 0 0 0 0 0" ascent="738" descent="-262" units-per-em="1000" alphabetic="0">
</font-face>
<missing-glyph horiz-adv-x="0" />

<glyph unicode="&#xA;" />
<glyph unicode="&#xD;" horiz-adv-x="0" />
<glyph unicode=" " horiz-adv-x="250" />
<glyph unicode="!" horiz-adv-x="205" d="M143 650L131 175H70L62 650H143ZM148 90V0H57V90H148Z"  />
<glyph unicode="&quot;" horiz-adv-x="282" d="M51 413L41 667H111L101 413H51ZM180 413L170 667H240L230 413H180Z"  />
<glyph unicode="#" horiz-adv-x="500" d="M470 213H365L331 0H261L295 213H163L129 0H61L95 213H-10L-1 273H104L126 407H21L30 467H135L167 667H235L203 467H335L367 667H437L405 467H510L500 406H395L374 273H479L470 213ZM193 406L172 273H305L326 406H193Z"  />
<glyph unicode="$" horiz-adv-x="501" d="M273 743V674Q336 666 374 619V668H428V485H378Q376 542 350 575T273 617V383Q303 370 322 361T354 346T375 334T393 321Q457 272 457 180Q457 96 409 47T273 -8V-85H233V-6Q191 -1 161 14T105 60V0H48V209H105Q105 140 137 100T233 49V317Q209 327 192 335T163 349T141 361T124 373Q57 422 57 505Q57 580 104 624T232 674V743H273ZM273 49Q325 56 352 87T380 172Q380 233 332 268Q323 275 311 281T273 300V49ZM232 618Q181 613 154 586T127 514Q127 463 170 432Q179 425 191 419T232 400V618Z"  />
<glyph unicode="%" horiz-adv-x="581" d="M459 667H515L124 0H68L459 667ZM429 315Q456 315 479 303T519 268T546 217T556 153Q556 120 547 91T520 41T480 7T430 -5Q402 -5 379 7T338 41T311 92T301 156Q301 189 311 217T338 268T379 302T429 315ZM429 263Q399 263 379 232T359 155Q359 108 379 78T429 47Q459 47 478 77T498 154Q498 201 478 232T429 263ZM153 672Q180 672 203 660T243 625T270 574T280 510Q280 477 271 448T244 398T204 364T154 352Q126 352 103 364T62 398T35 449T25 513Q25 546 35 574T62 625T103 659T153 672ZM152 620Q123 620 103 589T83 512Q83 464 102 434T153 404Q183 404 202 434T222 511Q222 558 202 589T152 620Z"  />
<glyph unicode="&amp;" horiz-adv-x="541" d="M514 339V286H451Q453 173 412 119L456 54H525V0H403L364 58Q329 23 293 8T207 -7Q120 -7 69 40T18 167Q18 223 46 269T141 369Q118 402 104 425T81 465T70 497T67 529Q67 558 77 582T106 623T151 650T208 660Q270 660 307 626T345 535Q345 491 321 451T239 362L375 170Q385 188 390 213T397 285H343V339H514ZM199 419Q238 452 256 480T275 537Q275 566 257 583T209 601Q179 601 160 584T141 537Q141 526 143 515T152 491T170 460T199 419ZM180 315Q136 283 115 248T94 170Q94 116 127 84T214 52Q249 52 276 65T330 106L180 315Z"  />
<glyph unicode="&apos;" horiz-adv-x="154" d="M52 413L42 667H112L102 413H52Z"  />
<glyph unicode="(" horiz-adv-x="256" d="M239 671Q184 593 158 487T132 234Q132 91 158 -13T239 -198H183Q154 -163 136 -130T102 -52Q83 6 72 81T61 235Q61 378 91 488T182 671H239Z"  />
<glyph unicode=")" horiz-adv-x="256" d="M17 -198Q71 -121 97 -14T124 239Q124 382 99 485T17 671H73Q103 633 121 600T154 525Q173 467 184 391T195 238Q195 95 164 -16T74 -198H17Z"  />
<glyph unicode="*" horiz-adv-x="500" d="M226 650H273V539L378 574L393 529L287 495L352 406L315 378L250 468L184 378L147 406L212 495L107 529L121 574L226 539V650Z"  />
<glyph unicode="+" horiz-adv-x="501" d="M218 363V552H284V363H467V301H284V111H218V301H34V363H218Z"  />
<glyph unicode="&#x2c;" horiz-adv-x="199" d="M154 102V0L78 -124H25L109 0H48V102H154Z"  />
<glyph unicode="-" horiz-adv-x="195" d="M195 282V234H0V282H195Z"  />
<glyph unicode="." horiz-adv-x="205" d="M154 102V0H51V102H154Z"  />
<glyph unicode="/" horiz-adv-x="339" d="M268 667H325L6 -173H-50L268 667Z"  />
<glyph unicode="0" horiz-adv-x="501" d="M250 659Q355 659 412 572T469 326Q469 166 412 79T250 -8Q145 -8 89 79T32 329Q32 407 47 468T90 571T158 636T250 659ZM251 601Q110 601 110 329Q110 51 251 51Q320 51 355 120T391 325Q391 601 251 601Z"  />
<glyph unicode="1" horiz-adv-x="501" d="M299 657V57H391V0H130V57H224V501H111V545Q174 547 203 572T240 657H299Z"  />
<glyph unicode="2" horiz-adv-x="501" d="M384 66V150H443V0H55V58Q112 118 156 171T241 280Q296 356 320 407T345 498Q345 542 316 569T240 596Q186 596 155 562T119 465H61Q64 556 114 607T250 659Q288 659 320 648T375 616T410 567T423 504Q423 457 398 403T313 269Q271 213 231 166T140 66H384Z"  />
<glyph unicode="3" horiz-adv-x="501" d="M197 382L221 381Q279 381 312 411T345 495Q345 543 318 571T243 599Q192 599 163 570T129 483H66Q67 523 80 555T118 611T175 646T249 659Q287 659 318 648T372 615T407 565T420 500Q420 395 325 354Q447 317 447 193Q447 148 432 111T390 48T324 7T240 -8Q197 -8 162 5T101 41T61 97T47 169V183H111Q113 120 146 87T238 53Q297 53 333 91T369 192Q369 253 332 286T227 320Q223 320 215 320T197 319V382Z"  />
<glyph unicode="4" horiz-adv-x="501" d="M453 239V180H356V57H419V0H214V57H283V180H26V237L289 657H356V239H453ZM283 398Q284 459 285 503T287 575Q261 528 243 495T213 442Q205 428 200 419T188 398L93 239H283V398Z"  />
<glyph unicode="5" horiz-adv-x="501" d="M417 650L406 584H171L143 411Q172 432 197 441T258 450Q301 450 336 434T396 390T435 321T449 232Q449 178 434 134T392 59T326 10T241 -8Q201 -8 168 4T112 38T77 90T64 159H125Q130 108 159 80T236 52Q266 52 291 64T333 100T361 156T371 227Q371 302 337 346T243 390Q173 390 121 317L70 324L121 650H417Z"  />
<glyph unicode="6" horiz-adv-x="501" d="M378 674Q328 622 282 562T203 444Q219 449 230 450T255 452Q296 452 329 436T387 391T424 320T438 230Q438 178 424 134T384 59T323 10T245 -8Q203 -8 169 9T109 56T69 129T55 221Q55 284 81 350T164 501Q223 591 299 674H378ZM247 396Q192 396 162 351T131 226Q131 142 161 97T247 51Q301 51 331 97T362 225Q362 306 332 351T247 396Z"  />
<glyph unicode="7" horiz-adv-x="501" d="M458 650V594L165 0H86L383 580H123V496H64V650H458Z"  />
<glyph unicode="8" horiz-adv-x="501" d="M151 342Q71 380 71 484Q71 565 119 612T251 659Q292 659 325 647T381 611T418 556T431 483Q431 380 350 342Q445 301 445 187Q445 143 431 108T392 46T330 6T251 -8Q207 -8 171 6T110 45T70 107T56 187Q56 302 151 342ZM251 601Q203 601 177 571T150 485Q150 428 176 397T251 366Q299 366 325 396T352 483Q352 540 326 570T251 601ZM251 311Q197 311 166 277T134 183Q134 120 165 85T251 50Q305 50 336 85T367 181Q367 242 336 276T251 311Z"  />
<glyph unicode="9" horiz-adv-x="501" d="M123 -24Q174 30 219 89T298 206Q282 202 271 201T246 199Q205 199 172 215T114 260T77 330T63 421Q63 473 77 517T117 592T178 641T256 659Q298 659 332 642T392 595T432 522T446 430Q446 250 203 -24H123ZM254 600Q200 600 170 554T139 426Q139 345 169 300T254 255Q309 255 339 300T370 425Q370 509 340 554T254 600Z"  />
<glyph unicode=":" horiz-adv-x="205" d="M154 404V302H51V404H154ZM154 102V0H51V102H154Z"  />
<glyph unicode=";" horiz-adv-x="199" d="M154 102V0L78 -124H25L109 0H48V102H154ZM158 404V302H51V404H158Z"  />
<glyph unicode="&lt;" horiz-adv-x="500" d="M466 499L108 336L466 174V104L33 306V367L466 569V499Z"  />
<glyph unicode="=" horiz-adv-x="501" d="M467 436V377H34V436H467ZM467 286V228H34V286H467Z"  />
<glyph unicode="&gt;" horiz-adv-x="500" d="M34 174L392 336L34 499V569L467 367V306L34 104V174Z"  />
<glyph unicode="?" horiz-adv-x="388" d="M123 179Q122 195 122 201T122 212Q122 277 138 316Q143 329 148 338T162 358T186 384T226 422Q252 448 264 470T276 517Q276 552 253 573T192 595Q147 595 120 569T86 491H24Q26 531 36 558T69 608Q94 634 128 647T201 660Q270 660 312 621T355 519Q355 467 326 427Q321 419 316 413T303 399T284 381T255 355Q235 338 223 323T203 290T192 252T189 203Q189 200 189 196T190 179H123ZM211 90V0H121V90H211Z"  />
<glyph unicode="@" horiz-adv-x="667" d="M516 493L475 284Q473 270 471 257T469 238Q469 218 478 207T504 196Q524 196 542 211T575 251T598 309T607 377Q607 429 588 473T535 549T455 600T354 618Q293 618 241 596T149 535T88 444T66 330Q66 264 93 205T172 106Q245 48 358 48Q382 48 409 51T465 61T519 75T566 92L582 39Q526 14 473 3T361 -9Q200 -9 103 87Q55 134 29 198T3 332Q3 404 30 466T103 575T213 648T349 675Q417 675 474 653T574 591T640 498T664 381Q664 334 651 292T615 217T563 165T500 146Q471 146 451 163T426 206Q404 175 373 159T305 142Q274 142 248 154T204 187T175 238T164 303Q164 345 178 381T215 445T271 489T339 505Q377 505 405 488T446 438L457 493H516ZM345 444Q321 444 300 433T264 403T239 359T229 304Q229 258 253 230T317 201Q340 201 360 212T394 244T417 292T426 350Q426 394 405 419T345 444Z"  />
<glyph unicode="A" horiz-adv-x="652" d="M366 674L559 60H644V0H404V60H479L432 210H199L151 60H224V0H7V60H85L292 674H366ZM371 415Q365 437 360 456T348 495T336 539T321 592Q313 566 309 552T303 529T299 515T295 503Q288 481 282 460T267 415L218 271H415L371 415Z"  />
<glyph unicode="B" horiz-adv-x="556" d="M205 667Q254 667 284 667T335 664T369 658T397 648Q441 628 464 591T488 502Q488 448 463 414T382 357Q519 325 519 191Q519 136 493 92T419 24Q405 17 389 13T352 5T301 1T229 0H29V60H112V607H29V667H205ZM237 380Q262 380 280 381T311 384T335 389T355 398Q406 428 406 494Q406 532 390 558T344 595Q328 600 304 602T233 605H190V380H237ZM241 61Q271 61 293 62T331 65T359 72T381 82Q436 114 436 189Q436 229 420 259T372 304Q363 308 353 311T327 316T291 318T237 319H190V61H241Z"  />
<glyph unicode="C" horiz-adv-x="575" d="M533 669V479H471Q467 508 462 525T448 558Q431 586 397 602T320 618Q226 618 175 544T124 331Q124 197 173 123T310 49Q358 49 396 72T452 137Q461 157 465 176T472 227H536Q536 113 476 50T306 -14Q243 -14 194 9T110 77T57 185T39 331Q39 412 58 476T112 586T197 656T309 681Q360 681 399 666T473 616V669H533Z"  />
<glyph unicode="D" horiz-adv-x="625" d="M234 667Q279 667 311 665T368 659T411 646T450 626Q514 585 549 509T585 334Q585 281 574 234T543 147T492 77T425 29Q407 20 390 15T352 6T302 2T234 0H29V60H112V607H29V667H234ZM245 61Q276 61 298 62T336 66T366 74T395 88Q446 117 474 181T503 334Q503 427 472 492T384 585Q371 591 358 595T330 602T294 605T245 606H190V61H245Z"  />
<glyph unicode="E" horiz-adv-x="512" d="M413 514V607H190V379H421V318H190V61H420V169H481V0H29V60H112V607H29V667H474V514H413Z"  />
<glyph unicode="F" horiz-adv-x="489" d="M413 514V607H190V379H421V318H190V60H289V0H29V60H112V607H29V667H474V514H413Z"  />
<glyph unicode="G" horiz-adv-x="618" d="M531 669V479H469Q464 545 425 582T317 619Q223 619 173 544T122 327Q122 193 173 121T320 48Q366 48 399 61T463 105V245H381V305H610V245H539V82Q456 -14 319 -14Q185 -14 112 77T39 334Q39 414 58 478T112 587T197 656T309 681Q361 681 398 667T471 617V669H531Z"  />
<glyph unicode="H" horiz-adv-x="669" d="M480 381V607H397V667H639V607H556V60H639V0H397V60H480V322H189V60H272V0H29V60H112V607H29V667H272V607H189V381H480Z"  />
<glyph unicode="I" horiz-adv-x="305" d="M275 667V607H192V60H275V0H29V60H112V607H29V667H275Z"  />
<glyph unicode="J" horiz-adv-x="318" d="M292 667V607H209V161Q209 125 208 99T204 52T196 16T184 -11Q141 -81 32 -81H5V-21Q50 -21 75 -12T113 18Q118 26 121 35T126 61T128 100T129 161V607H46V667H292Z"  />
<glyph unicode="K" horiz-adv-x="634" d="M267 667V607H187V347L443 607H373V667H602V607H522L315 393L539 60H622V0H375V60H444L265 346L186 265V60H266V0H29V60H112V607H29V667H267Z"  />
<glyph unicode="L" horiz-adv-x="499" d="M424 61V169H486V0H29V60H112V607H29V667H273V607H190V61H424Z"  />
<glyph unicode="M" horiz-adv-x="809" d="M230 667L314 398Q324 363 333 332T353 267T373 198T396 119Q402 139 408 157T415 179Q422 199 428 219T441 259Q441 260 446 274T458 309T473 354T488 399L582 667H779V607H696V60H779V0H536V60H619V327Q619 374 619 442T621 603L523 313L424 35H348L261 314L173 600L174 460V393V327V60H257V0H29V60H112V607H29V667H230Z"  />
<glyph unicode="N" horiz-adv-x="666" d="M205 667L351 405L425 267Q433 251 438 241T450 218T467 185T497 128L496 256Q496 294 496 315T495 347T495 364T495 378V607H412V667H640V607H557V0H490L332 283L171 585Q171 564 172 524T173 442T174 364T175 313V60H258V0H29V60H112V607H29V667H205Z"  />
<glyph unicode="O" horiz-adv-x="624" d="M312 681Q374 681 424 657T510 587T565 478T584 334Q584 254 565 190T511 81T425 11T312 -14Q249 -14 198 10T112 80T58 191T39 338Q39 413 59 479T115 591Q149 634 200 657T312 681ZM311 619Q222 619 173 545T123 337Q123 198 172 123T312 48Q402 48 451 122T500 334Q500 470 451 544T311 619Z"  />
<glyph unicode="P" horiz-adv-x="525" d="M191 60H280V0H29V60H112V607H29V667H235Q275 667 303 666T350 663T384 655T412 643Q457 619 481 576T505 476Q505 416 478 371T401 305Q375 294 343 290T252 285H191V60ZM249 346Q274 346 291 346T322 349T345 354T364 362Q392 376 407 405T422 476Q422 520 406 550T357 594Q349 598 340 600T319 603T289 605T246 606H191V346H249Z"  />
<glyph unicode="Q" horiz-adv-x="624" d="M560 0L501 69Q421 -14 311 -14Q249 -14 199 10T113 80T58 189T39 334Q39 413 58 477T112 587T198 656T312 681Q374 681 424 657T510 587T565 478T584 333Q584 274 574 224T542 129L660 0H560ZM311 619Q222 619 173 545T123 337Q123 198 172 123T312 48Q402 48 451 122T500 334Q500 470 451 544T311 619Z"  />
<glyph unicode="R" horiz-adv-x="600" d="M239 667Q287 667 318 666T370 663T406 656T436 644Q482 621 506 582T530 490Q530 421 493 374T391 314L516 60H591V0H454L315 305H189V60H269V0H29V60H112V607H29V667H239ZM271 367Q299 367 318 367T351 370T375 376T395 386Q447 415 447 488Q447 566 384 594Q375 597 366 599T343 603T311 605T265 606H190V367H271Z"  />
<glyph unicode="S" horiz-adv-x="484" d="M426 667V486H373Q369 548 333 582T236 617Q181 617 149 589T116 513Q116 492 121 477T143 448T190 419T269 381Q302 366 323 356T360 337T386 320T408 302Q456 257 456 181Q456 138 442 102T400 41T336 1T252 -13Q198 -13 159 4T86 60V0H31V201H86Q87 129 128 90T243 50Q306 50 340 82T375 171Q375 193 370 210T352 242T319 269T267 295Q226 312 198 324T151 347T118 365T95 382Q34 433 34 507Q34 545 48 576T87 631T148 667T226 680Q317 680 369 616V667H426Z"  />
<glyph unicode="T" horiz-adv-x="506" d="M494 667V505H433V606H291V60H374V0H131V60H214V606H73V505H12V667H494Z"  />
<glyph unicode="U" horiz-adv-x="665" d="M269 667V607H186V276Q186 209 191 172T211 112Q229 81 262 65T340 49Q391 49 428 70T482 131Q486 140 488 151T492 179T494 218T495 272V607H412V667H640V607H557V272Q557 225 556 195T552 146T544 113T529 84Q501 36 451 11T334 -14Q262 -14 208 14T130 94Q123 108 119 123T113 158T109 207T108 278V607H25V667H269Z"  />
<glyph unicode="V" horiz-adv-x="644" d="M242 667V607H167L326 95L496 607H423V667H640V607H562L354 -8H280L85 607H5V667H242Z"  />
<glyph unicode="W" horiz-adv-x="860" d="M247 667V607H166L215 368Q224 318 229 286T239 227T249 172T261 101Q274 153 291 227T332 398L401 667H475L540 399Q542 392 546 373T556 325Q557 320 559 311T563 291T567 269T572 250Q577 229 581 211T588 175Q592 157 595 139T604 101Q614 151 621 187T635 254T647 312T659 369L711 607H635V667H856V607H775L636 -4H562L496 270L431 567Q414 493 397 419T362 270L294 -4H218L89 607H5V667H247Z"  />
<glyph unicode="X" horiz-adv-x="600" d="M187 667L310 409L417 607H345V667H574V607H493L342 353L497 60H583V0H432L293 294L165 60H244V0H7V60H92L261 349L127 607H41V667H187Z"  />
<glyph unicode="Y" horiz-adv-x="575" d="M246 667V607H172L294 353L419 607H344V667H574V607H489L324 284V60H407V0H163V60H246V281L85 607H1V667H246Z"  />
<glyph unicode="Z" horiz-adv-x="475" d="M387 61V168H449V0H20V48L345 606H102V515H40V667H443V618L116 61H387Z"  />
<glyph unicode="[" horiz-adv-x="256" d="M236 667V607H151V-133H236V-194H83V667H236Z"  />
<glyph unicode="\" horiz-adv-x="339" d="M332 -173L14 667H70L389 -173H332Z"  />
<glyph unicode="]" horiz-adv-x="256" d="M19 -194V-134H104V606H19V667H172V-194H19Z"  />
<glyph unicode="^" horiz-adv-x="500" d="M26 367L204 669H296L474 367H397L249 613L102 367H26Z"  />
<glyph unicode="_" horiz-adv-x="500" d="M500 -66V-131H0V-66H500Z"  />
<glyph unicode="`" horiz-adv-x="500" d="M236 549L104 665H194L308 549H236Z"  />
<glyph unicode="a" horiz-adv-x="469" d="M55 325L68 425Q134 482 220 482Q265 482 300 467T355 424Q361 415 365 405T372 380T375 344T376 290V54H446V0H309V70Q289 31 255 11T176 -10Q144 -10 118 0T72 28T42 72T31 127Q31 175 57 210T133 267Q148 274 161 278T192 287T235 297T301 311V329Q301 358 299 372T289 396Q269 425 215 425Q184 425 161 416T126 389Q123 384 121 380T117 369T113 352T108 325H55ZM302 261Q247 250 210 239T150 212T117 178T107 134Q107 96 130 74T191 51Q224 51 250 67T290 112Q296 126 299 153T302 219V261Z"  />
<glyph unicode="b" horiz-adv-x="513" d="M162 669V400Q207 482 292 482Q331 482 365 464T423 412T462 334T476 236Q476 183 462 138T424 60T365 9T292 -10Q207 -10 162 72L160 0H90V615H19V669H162ZM282 425Q225 425 194 376T162 239Q162 147 193 97T282 47Q339 47 370 96T401 236Q401 326 370 375T282 425Z"  />
<glyph unicode="c" horiz-adv-x="433" d="M390 473V316H332Q323 424 235 424Q178 424 146 373T114 233Q114 146 145 97T231 48Q317 48 332 157H398Q392 79 347 35T228 -10Q185 -10 150 7T89 55T51 131T37 230Q37 285 51 331T90 411T151 463T228 482Q293 482 332 430V473H390Z"  />
<glyph unicode="d" horiz-adv-x="519" d="M423 669V54H494V0H351V72Q306 -10 222 -10Q182 -10 148 8T90 60T51 138T37 236Q37 289 51 334T89 412T148 463T222 482Q306 482 351 400V615H280V669H423ZM232 425Q175 425 144 376T112 239Q112 146 143 97T232 47Q289 47 320 96T351 236Q351 326 320 375T232 425Z"  />
<glyph unicode="e" horiz-adv-x="460" d="M113 231V216Q113 137 145 92T235 47Q280 47 308 72T345 145H414Q411 110 397 82T359 33T303 2T234 -10Q189 -10 153 7T91 55T51 131T37 230Q37 286 51 332T92 412T156 463T238 482Q280 482 314 466T372 419T409 345T423 250L422 231H113ZM342 284Q339 425 238 425Q188 425 156 388T116 284H342Z"  />
<glyph unicode="f" horiz-adv-x="311" d="M288 472V416H175V54H263V0H29V54H100V416H33V472H100V519Q100 544 101 562T104 593T111 616T123 635Q158 679 227 679Q273 679 309 664V598Q289 611 271 616T234 622Q191 622 179 582Q178 577 177 573T176 562T175 544T175 513V472H288Z"  />
<glyph unicode="g" horiz-adv-x="467" d="M449 421L343 422Q392 382 392 318Q392 291 383 267T355 226Q338 209 315 197T245 171Q215 162 196 155T165 142T149 129T145 115Q145 101 158 95T202 85Q266 80 310 71T381 45T420 4T432 -54Q432 -127 380 -165T228 -204Q127 -204 72 -168T16 -66Q16 23 130 51Q95 61 81 72T66 104Q66 156 170 180Q60 214 60 319Q60 351 71 379T105 428Q131 452 164 462T251 472H299Q316 471 327 471T341 471H449V421ZM229 421Q186 421 159 394T132 324Q132 279 158 252T228 225Q270 225 296 252T322 324Q322 368 297 394T229 421ZM227 25Q161 25 121 2T81 -61Q81 -103 119 -126T229 -149Q294 -149 330 -126T366 -60Q366 -18 330 3T227 25Z"  />
<glyph unicode="h" horiz-adv-x="544" d="M175 404Q220 482 307 482Q349 482 382 466T433 420Q439 408 443 399T448 375T450 335T451 267V54H522V0H308V54H376V281Q376 321 375 339T369 369Q361 392 340 405T288 418Q256 418 231 402T191 357Q182 339 179 317T175 251V54H243V0H29V54H100V615H29V669H175V404Z"  />
<glyph unicode="i" horiz-adv-x="271" d="M175 54H247V0H29V54H100V418H29V472H175V54ZM178 657V573H85V657H178Z"  />
<glyph unicode="j" horiz-adv-x="283" d="M191 54Q191 21 191 2T190 -29T188 -48T186 -64Q175 -130 130 -165T12 -201Q10 -201 7 -201T-1 -200V-160Q68 -154 94 -114Q101 -101 105 -91T112 -64T114 -20T115 55V418H44V472H191V54ZM194 657V573H100V657H194Z"  />
<glyph unicode="k" horiz-adv-x="535" d="M174 247L348 418H282V472H490V418H424L302 295L452 54H523V0H308V54H363L249 251L173 174V54H237V0H29V54H100V615H29V669H174V247Z"  />
<glyph unicode="l" horiz-adv-x="273" d="M177 54H249V0H29V54H100V615H29V669H177V54Z"  />
<glyph unicode="m" horiz-adv-x="780" d="M171 402Q191 444 222 463T298 482Q393 482 422 400Q442 443 472 462T550 482Q596 482 630 461T678 404Q681 396 682 389T684 370T685 337T686 278V54H757V0H548V54H611V277Q611 307 611 324T610 350T607 365T602 378Q592 397 574 407T529 418Q467 418 442 362Q435 348 433 328T431 264V54H493V0H293V54H356V263Q356 298 356 317T354 348T351 364T346 377Q328 418 275 418Q214 418 188 362Q180 345 178 324T175 261V54H238V0H29V54H100V418H29V472H171V402Z"  />
<glyph unicode="n" horiz-adv-x="533" d="M172 396Q215 482 305 482Q350 482 383 461T430 404Q433 395 435 387T438 366T439 329T440 267V54H511V0H302V54H365V281Q365 304 365 319T363 345T361 363T356 377Q348 397 330 407T286 418Q259 418 235 405T196 368Q190 358 186 348T179 325T176 295T175 252V54H238V0H29V54H100V418H29V472H172V396Z"  />
<glyph unicode="o" horiz-adv-x="474" d="M237 484Q278 484 314 468T378 422Q437 358 437 236Q437 115 378 50Q352 21 315 5T237 -12Q196 -12 159 4T96 50Q37 113 37 240Q37 297 52 344T96 422Q122 451 159 467T237 484ZM237 427Q177 427 146 379T114 239Q114 144 145 95T237 46Q297 46 328 95T360 236Q360 329 329 378T237 427Z"  />
<glyph unicode="p" horiz-adv-x="523" d="M172 400Q217 482 301 482Q341 482 374 464T433 412T472 334T486 236Q486 183 472 138T434 60T375 9T302 -10Q217 -10 172 72V-143H246V-197H29V-143H100V418H29V472H172V400ZM291 425Q235 425 204 376T172 239Q172 146 203 97T292 47Q349 47 380 96T411 236Q411 326 380 375T291 425Z"  />
<glyph unicode="q" horiz-adv-x="523" d="M494 472V418H423V-143H494V-197H277V-143H351V72Q306 -10 222 -10Q182 -10 148 8T90 60T51 138T37 236Q37 289 51 334T89 412T148 463T222 482Q306 482 351 400V472H494ZM232 425Q175 425 144 376T112 239Q112 146 143 97T232 47Q289 47 320 96T351 236Q351 326 320 375T232 425Z"  />
<glyph unicode="r" horiz-adv-x="370" d="M170 400Q192 441 219 459T282 478Q310 478 330 467T368 430V333H310Q308 356 307 368T302 389Q291 417 258 417Q234 417 214 399T185 351Q182 340 180 328T177 299T176 260T175 208V54H257V0H29V54H100V418H29V472H170V400Z"  />
<glyph unicode="s" horiz-adv-x="397" d="M298 321Q296 372 269 400T192 428Q156 428 133 409T110 360Q110 336 127 320T191 285Q220 273 239 265T272 250T296 238T316 225Q365 191 365 130Q365 99 354 74T321 30T272 1T209 -10Q168 -10 139 6T84 57L79 -2H31V158H80Q88 107 122 76T204 45Q242 45 266 65T290 118Q290 131 287 141T273 161T247 178T205 198Q149 221 119 236T76 263Q36 299 36 351Q36 379 47 403T77 445T123 473T181 483Q249 483 295 431L301 475H348V321H298Z"  />
<glyph unicode="t" horiz-adv-x="309" d="M277 472V417H165V196Q165 170 165 153T166 125T168 107T171 92Q182 52 226 52Q240 52 253 56T285 70V8Q260 -1 244 -4T208 -7Q128 -7 103 50Q98 60 96 68T92 91T90 129T90 195V417H23V472H90V611H165V472H277Z"  />
<glyph unicode="u" horiz-adv-x="537" d="M166 218Q166 183 166 163T167 132T170 114T175 100Q197 54 253 54Q281 54 306 67T346 104Q358 123 362 147T367 220V418H295V472H442V54H513V0H373V79Q330 -10 237 -10Q188 -10 152 14T101 81Q98 90 96 98T93 120T92 155T91 210V418H20V472H166V218Z"  />
<glyph unicode="v" horiz-adv-x="507" d="M217 472V418H157L210 252Q219 223 224 206T235 172T246 134T262 78Q274 117 288 160T318 252L373 418H312V472H504V418H434L288 -4H223L76 418H4V472H217Z"  />
<glyph unicode="w" horiz-adv-x="719" d="M205 472V418H145L180 262Q191 215 200 171T217 85Q242 184 271 289L326 472H405L456 285Q466 247 473 219T486 168T497 124T508 80Q510 88 511 96T514 111Q516 118 518 125L527 170Q533 197 537 217T547 260L585 418H527V472H715V418H643L537 -4H465L411 188Q399 235 386 289T357 405Q347 366 341 343T331 303T324 273T315 242Q309 219 306 205T301 188L245 -4H174L71 418H4V472H205Z"  />
<glyph unicode="x" horiz-adv-x="522" d="M178 472L267 306L338 420H291V472H490V418H407L294 257L421 54H512V0H361L251 203L157 52H215V0H11V54H89L222 252L121 418H43V472H178Z"  />
<glyph unicode="y" horiz-adv-x="500" d="M214 472V418H154L206 257Q209 246 212 236T220 214Q223 203 226 193T233 171L248 122Q250 116 253 105T259 85L285 171Q286 174 289 185T297 210T305 237T312 257L367 418H307V472H499V418H427L282 -14Q270 -49 262 -71T247 -108T232 -134T215 -155Q170 -203 86 -203Q84 -203 78 -203T64 -202V-148Q97 -147 119 -142T158 -124T186 -91T210 -38L219 -12L76 418H1V472H214Z"  />
<glyph unicode="z" horiz-adv-x="383" d="M310 56V137H367V0H11V41L262 416H78V348H21V472H356V430L105 56H310Z"  />
<glyph unicode="{" horiz-adv-x="256" d="M238 612Q211 611 193 607T164 592T149 566T144 525V350Q144 303 132 278T88 236Q119 218 131 192T144 119V-46Q144 -73 148 -91T163 -119T192 -134T238 -139V-194Q216 -194 200 -193T172 -191T151 -186T132 -178Q104 -162 91 -131T78 -46V117Q78 161 66 182T21 212V263Q52 271 65 292T78 354V533Q78 603 111 635T217 667Q220 667 225 667T238 666V612Z"  />
<glyph unicode="|" horiz-adv-x="500" d="M285 667V-167H215V667H285Z"  />
<glyph unicode="}" horiz-adv-x="256" d="M17 -139Q44 -139 62 -135T91 -120T106 -94T111 -52V123Q111 170 123 195T167 237Q136 254 124 280T111 354V519Q111 546 107 564T92 592T63 607T17 612V667H34Q73 667 100 659T145 634T169 588T177 519V355Q177 311 189 291T234 261V209Q203 201 190 180T177 119V-61Q177 -130 144 -162T38 -194H17V-139Z"  />
<glyph unicode="~" horiz-adv-x="667" d="M93 244Q124 308 154 333T229 358Q250 358 275 351T342 323Q364 312 378 306T403 296T422 291T439 290Q468 290 488 305T531 360L573 334Q544 276 510 250T431 223Q420 223 410 225T384 232T346 247T291 272Q252 291 224 291Q198 291 177 274T135 217L93 244Z"  />
<glyph unicode="&#xA0;" horiz-adv-x="250" />
<glyph unicode="&#xA1;" horiz-adv-x="205" d="M62 -178L73 297H135L143 -178H62ZM57 382V472H148V382H57Z"  />
<glyph unicode="&#xA2;" horiz-adv-x="501" d="M284 679V581Q336 572 367 531V573H423V415H365Q362 462 341 490T284 523V149Q355 163 367 257H430Q426 187 387 142T284 91V-12H242V91Q203 94 172 113T118 163T83 236T71 329Q71 395 91 449T150 539Q169 556 190 566T242 581V679H284ZM242 521Q194 505 170 458T146 334Q146 177 242 150V521Z"  />
<glyph unicode="&#xA3;" horiz-adv-x="501" d="M308 308H198Q193 245 174 177T124 55Q136 59 147 62T171 67T200 69T238 70Q255 70 269 70T306 67Q320 66 333 66T354 65Q425 65 425 131Q425 139 425 145T423 163H478Q480 152 481 145T482 126Q482 88 471 60T437 18Q429 13 421 10T402 4T374 1T334 0H52V32Q65 55 76 87T98 157T114 234T123 308H50V365H129Q134 413 138 444T145 497T150 531T156 555Q193 676 299 676Q356 676 389 642T427 546H371Q364 581 349 597T304 614Q240 614 221 522Q219 512 218 505T215 483T211 441T203 365H308V308Z"  />
<glyph unicode="&#xA4;" horiz-adv-x="667" d="M153 165Q101 230 101 308Q101 347 113 380T153 450L58 543L95 580L189 487Q227 515 260 527T334 539Q374 539 407 527T477 487L571 580L608 543L515 450Q542 412 554 379T566 307Q566 267 554 234T515 165L609 71L573 34L479 128Q413 77 335 77Q297 77 263 89T190 128L97 34L61 71L153 165ZM334 481Q298 481 267 468T212 431T175 376T161 310Q161 273 174 241T211 186T266 149T334 135Q370 135 401 148T455 185T492 240T506 308Q506 344 493 375T456 430T401 467T334 481Z"  />
<glyph unicode="&#xA5;" horiz-adv-x="501" d="M229 667V607H159L256 352L358 607H289V667H501V607H423L353 440H461V380H329L290 290H423V230H288V60H371V0H126V60H210V230H77V290H207L169 380H38V440H146L78 607H1V667H229Z"  />
<glyph unicode="&#xA6;" horiz-adv-x="500" d="M285 667V334H215V667H285ZM285 153V-167H215V153H285Z"  />
<glyph unicode="&#xA7;" horiz-adv-x="500" d="M369 480Q369 601 261 601Q216 601 188 578T160 516Q160 479 194 452Q199 448 204 445T219 435T250 417T306 385Q328 372 344 363T373 345T393 330T409 315Q423 300 430 280T438 237Q438 197 418 167T353 112Q390 83 405 56T420 -10Q420 -45 407 -74T371 -123T315 -155T243 -167Q203 -167 170 -156T113 -124T76 -74T63 -10V0H126Q132 -109 242 -109Q290 -109 319 -83T349 -14Q349 13 336 32T285 74Q280 77 248 96T156 151Q107 180 87 209T66 276Q66 314 87 342T156 395Q120 421 104 447T88 511Q88 543 101 570T136 617T190 648T259 659Q319 659 361 634T420 564Q427 544 429 527T432 480H369ZM206 363Q135 334 135 282Q135 267 141 255T165 227T217 193T304 143Q334 157 351 179T369 228Q369 251 358 265T312 301Q304 306 290 314T261 331T231 348T206 363Z"  />
<glyph unicode="&#xA8;" horiz-adv-x="500" d="M210 650V557H121V650H210ZM379 650V557H290V650H379Z"  />
<glyph unicode="&#xA9;" horiz-adv-x="768" d="M523 537V420H479Q474 463 452 482T388 502Q331 502 301 459T270 335Q270 258 301 215T386 171Q473 171 480 276H525Q524 204 489 167T386 129Q305 129 259 183T212 335Q212 432 257 488T382 544Q413 544 435 536T480 509V537H523ZM384 679Q455 679 518 652T627 578T701 468T728 333Q728 262 701 199T628 89T519 15T385 -12Q313 -12 250 15T140 90T66 201T39 338Q39 408 66 470T141 578T250 652T384 679ZM384 643Q321 643 266 619T169 554T103 457T79 338Q79 272 103 215T168 115T265 49T385 24Q448 24 503 48T599 115T664 213T688 334Q688 398 664 454T599 552T503 618T384 643Z"  />
<glyph unicode="&#xAA;" horiz-adv-x="322" d="M299 333V294H22V333H299ZM44 579L53 642Q96 676 150 676Q208 676 234 641Q239 635 241 630T245 616T247 595T248 561V423H292V386H201V419Q174 380 123 380Q81 380 56 403T30 464Q30 522 95 550Q105 554 113 556T133 562T159 568T197 575V584Q197 616 187 626T148 637Q110 637 96 618Q91 613 89 606T83 579H44ZM197 540Q134 529 109 513T83 468Q83 446 96 434T132 421Q152 421 167 430T190 456Q194 464 195 478T197 518V540Z"  />
<glyph unicode="&#xAB;" horiz-adv-x="339" d="M265 0L163 236L265 472H315L226 236L315 0H265ZM136 0L35 236L136 472H187L98 236L187 0H136Z"  />
<glyph unicode="&#xAC;" horiz-adv-x="500" d="M396 201H33V266H466V0H396V201Z"  />
<glyph unicode="&#xAD;" horiz-adv-x="195" d="M195 282V234H0V282H195Z"  />
<glyph unicode="&#xAE;" horiz-adv-x="768" d="M355 536Q386 536 406 536T441 533T465 528T485 519Q538 490 538 427Q538 343 452 323L528 177H575V137H488L399 317H327V177H376V137H222V177H274V496H222V536H355ZM375 359Q409 359 424 361T450 370Q481 387 481 428Q481 470 448 486Q437 491 421 493T371 495H328V359H375ZM384 679Q455 679 518 652T627 578T701 468T728 333Q728 262 701 199T628 89T518 15T384 -12Q312 -12 249 15T140 90T66 201T39 338Q39 408 66 470T141 578T250 652T384 679ZM384 643Q321 643 266 619T169 553T103 456T79 337Q79 271 102 214T167 115T264 49T384 24Q447 24 502 48T599 115T664 213T688 333Q688 397 664 453T599 552T503 618T384 643Z"  />
<glyph unicode="&#xAF;" horiz-adv-x="500" d="M378 619V570H122V619H378Z"  />
<glyph unicode="&#xB0;" horiz-adv-x="500" d="M251 674Q280 674 306 663T351 634T382 590T393 535Q393 506 382 481T352 437T306 407T251 396Q221 396 195 407T150 437T119 481T108 537Q108 565 119 590T150 633T196 663T251 674ZM251 620Q215 620 190 596T164 537Q164 501 189 476T251 451Q269 451 284 457T311 475T330 502T337 536Q337 553 330 568T312 595T285 613T251 620Z"  />
<glyph unicode="&#xB1;" horiz-adv-x="501" d="M218 382V570H284V382H467V321H284V132H218V321H34V382H218ZM467 107V46H34V107H467Z"  />
<glyph unicode="&#xB2;" horiz-adv-x="330" d="M245 471V521H287V427H42V465Q55 477 70 493T100 527T131 564T159 600Q191 643 206 672T221 725Q221 750 204 765T159 780Q93 780 87 703H46Q48 760 79 791T166 822Q214 822 244 797T275 729Q275 700 259 667T206 587Q158 525 104 471H245Z"  />
<glyph unicode="&#xB3;" horiz-adv-x="330" d="M130 659Q135 658 140 658T148 658Q183 658 202 675T222 723Q222 750 206 766T161 782Q99 782 94 713H49Q51 764 81 793T165 822Q214 822 244 796T274 726Q274 696 261 676T219 640Q290 617 290 543Q290 489 254 456T159 422Q105 422 71 451T37 529V540H82Q85 463 158 463Q193 463 214 485T236 543Q236 578 214 597T152 617Q147 617 143 617T130 616V659Z"  />
<glyph unicode="&#xB4;" horiz-adv-x="500" d="M306 665H396L262 549H192L306 665Z"  />
<glyph unicode="&#xB5;" horiz-adv-x="500" d="M48 480H118V207Q118 153 126 125T157 76Q174 59 197 50T247 41Q276 41 302 53T346 89Q366 115 374 143T382 216V480H452V0H382V87Q359 34 326 11T245 -13Q202 -13 172 5T118 61V-167H48V480Z"  />
<glyph unicode="&#xB6;" horiz-adv-x="474" d="M177 314H161Q120 314 87 327T29 363T-9 418T-23 488Q-23 538 -1 578T61 640Q84 653 119 660T196 667H467V616H397V-99H339V616H235V-99H177V314Z"  />
<glyph unicode="&#xB7;" horiz-adv-x="205" d="M154 295V193H51V295H154Z"  />
<glyph unicode="&#xB8;" horiz-adv-x="500" d="M291 0L271 -46Q341 -55 341 -113Q341 -147 318 -167T254 -187Q239 -187 226 -185T192 -177V-139Q211 -142 219 -143T235 -144Q259 -144 273 -134T287 -107Q287 -70 229 -70H213L246 0H291Z"  />
<glyph unicode="&#xB9;" horiz-adv-x="330" d="M198 821V466H255V427H88V466H146V724H76V755Q116 756 134 771T156 821H198Z"  />
<glyph unicode="&#xBA;" horiz-adv-x="298" d="M288 333V294H11V333H288ZM150 680Q207 680 241 640T275 532Q275 464 241 424T150 384Q92 384 59 424T25 534Q25 600 59 640T150 680ZM150 641Q116 641 98 613T79 534Q79 480 97 452T150 423Q184 423 202 451T221 532Q221 585 203 613T150 641Z"  />
<glyph unicode="&#xBB;" horiz-adv-x="339" d="M75 472L176 236L75 0H24L113 236L24 472H75ZM203 472L304 236L203 0H152L242 236L152 472H203Z"  />
<glyph unicode="&#xBC;" horiz-adv-x="775" d="M198 654V300H255V261H88V300H146V557H76V588Q116 589 134 604T156 654H198ZM602 650L220 0H164L545 650H602ZM738 148V107H678V39H717V0H585V39H627V107H468V144L632 394H678V148H738ZM627 239V264Q628 270 628 276T628 289V310Q628 312 628 316T629 327Q621 313 613 300T596 272Q591 264 587 257T574 237L518 148H627V239Z"  />
<glyph unicode="&#xBD;" horiz-adv-x="775" d="M198 654V300H255V261H88V300H146V557H76V588Q116 589 134 604T156 654H198ZM602 650L220 0H164L545 650H602ZM690 44V94H732V0H486V38Q498 50 513 66T544 100T575 136T604 172Q636 215 651 244T666 297Q666 322 649 337T604 352Q537 352 532 275H490Q492 332 523 363T610 394Q659 394 689 369T720 301Q720 272 704 240T651 159Q628 130 601 100T548 44H690Z"  />
<glyph unicode="&#xBE;" horiz-adv-x="775" d="M130 492Q135 491 140 491T148 491Q183 491 202 508T222 556Q222 582 206 598T161 614Q99 614 94 546H49Q51 597 81 626T165 655Q214 655 244 629T274 559Q274 529 261 509T219 473Q290 450 290 377Q290 323 254 290T159 256Q105 256 71 285T37 363V374H82Q85 297 158 297Q193 297 214 319T236 377Q236 412 214 431T152 450Q147 450 143 450T130 449V492ZM602 650L220 0H164L545 650H602ZM738 148V107H678V39H717V0H585V39H627V107H468V144L632 394H678V148H738ZM627 239V264Q628 270 628 276T628 289V310Q628 312 628 316T629 327Q621 313 613 300T596 272Q591 264 587 257T574 237L518 148H627V239Z"  />
<glyph unicode="&#xBF;" horiz-adv-x="388" d="M266 293V258Q266 194 250 156Q245 143 240 134T225 113T202 87T162 49Q136 24 124 2T112 -46Q112 -81 135 -102T196 -123Q241 -123 268 -97T302 -19H364Q362 -59 352 -86T319 -137Q268 -188 187 -188Q118 -188 76 -149T33 -47Q33 -23 40 1T62 45Q67 53 72 59T85 74T104 92T133 117Q152 133 165 148T185 180T196 217T199 263V293H266ZM178 382V472H268V382H178Z"  />
<glyph unicode="&#xC0;" horiz-adv-x="652" d="M366 674L559 60H644V0H404V60H479L432 210H199L151 60H224V0H7V60H85L292 674H366ZM371 415Q365 437 360 456T348 495T336 539T321 592Q313 566 309 552T303 529T299 515T295 503Q288 481 282 460T267 415L218 271H415L371 415ZM283 739L151 855H241L355 739H283Z"  />
<glyph unicode="&#xC1;" horiz-adv-x="652" d="M366 674L559 60H644V0H404V60H479L432 210H199L151 60H224V0H7V60H85L292 674H366ZM371 415Q365 437 360 456T348 495T336 539T321 592Q313 566 309 552T303 529T299 515T295 503Q288 481 282 460T267 415L218 271H415L371 415ZM367 855H457L323 739H253L367 855Z"  />
<glyph unicode="&#xC2;" horiz-adv-x="652" d="M366 674L559 60H644V0H404V60H479L432 210H199L151 60H224V0H7V60H85L292 674H366ZM371 415Q365 437 360 456T348 495T336 539T321 592Q313 566 309 552T303 529T299 515T295 503Q288 481 282 460T267 415L218 271H415L371 415ZM263 857H340L453 739H387L301 817L216 739H150L263 857Z"  />
<glyph unicode="&#xC3;" horiz-adv-x="652" d="M366 674L559 60H644V0H404V60H479L432 210H199L151 60H224V0H7V60H85L292 674H366ZM371 415Q365 437 360 456T348 495T336 539T321 592Q313 566 309 552T303 529T299 515T295 503Q288 481 282 460T267 415L218 271H415L371 415ZM155 763Q180 850 245 850Q261 850 275 845T311 827Q337 812 349 807T373 801Q389 801 399 812T419 851L463 833Q438 744 372 744Q356 744 339 750T293 774Q273 785 263 789T243 794Q227 794 218 784T198 745L155 763Z"  />
<glyph unicode="&#xC4;" horiz-adv-x="652" d="M366 674L559 60H644V0H404V60H479L432 210H199L151 60H224V0H7V60H85L292 674H366ZM371 415Q365 437 360 456T348 495T336 539T321 592Q313 566 309 552T303 529T299 515T295 503Q288 481 282 460T267 415L218 271H415L371 415ZM283 844V751H194V844H283ZM452 844V751H363V844H452Z"  />
<glyph unicode="&#xC5;" horiz-adv-x="652" d="M366 674L559 60H644V0H404V60H479L432 210H199L151 60H224V0H7V60H85L292 674H366ZM371 415Q365 437 360 456T348 495T336 539T321 592Q313 566 309 552T303 529T299 515T295 503Q288 481 282 460T267 415L218 271H415L371 415ZM330 873Q362 873 384 851T406 797Q406 765 384 743T330 720Q298 720 276 742T253 797Q253 829 275 851T330 873ZM330 837Q313 837 301 826T289 797Q289 780 301 768T330 756Q347 756 358 768T370 797Q370 814 359 825T330 837Z"  />
<glyph unicode="&#xC6;" horiz-adv-x="878" d="M774 518V606H552V379H774V318H552V61H785V164H846V0H390V60H473V207H239L155 60H232V0H1V60H85L441 667H835V518H774ZM473 609L275 268H473V609Z"  />
<glyph unicode="&#xC7;" horiz-adv-x="575" d="M533 669V479H471Q467 508 462 525T448 558Q431 586 397 602T320 618Q226 618 175 544T124 331Q124 197 173 123T310 49Q358 49 396 72T452 137Q461 157 465 176T472 227H536Q537 175 523 132T481 58T413 8T324 -13L309 -52Q388 -64 388 -129Q388 -166 362 -189T290 -212Q273 -212 257 -210T219 -201V-158Q237 -161 247 -162T265 -163Q293 -163 308 -153T324 -122Q324 -108 316 -98T291 -83Q283 -81 275 -81T243 -80L275 -11Q221 -8 177 17T103 86T56 193T39 331Q39 412 58 476T112 586T197 656T309 681Q360 681 399 666T473 616V669H533Z"  />
<glyph unicode="&#xC8;" horiz-adv-x="512" d="M413 514V607H190V379H421V318H190V61H420V169H481V0H29V60H112V607H29V667H474V514H413ZM244 739L112 855H202L316 739H244Z"  />
<glyph unicode="&#xC9;" horiz-adv-x="512" d="M413 514V607H190V379H421V318H190V61H420V169H481V0H29V60H112V607H29V667H474V514H413ZM309 855H399L265 739H195L309 855Z"  />
<glyph unicode="&#xCA;" horiz-adv-x="512" d="M413 514V607H190V379H421V318H190V61H420V169H481V0H29V60H112V607H29V667H474V514H413ZM205 857H282L395 739H329L243 817L158 739H92L205 857Z"  />
<glyph unicode="&#xCB;" horiz-adv-x="512" d="M413 514V607H190V379H421V318H190V61H420V169H481V0H29V60H112V607H29V667H474V514H413ZM224 844V751H135V844H224ZM393 844V751H304V844H393Z"  />
<glyph unicode="&#xCC;" horiz-adv-x="305" d="M275 667V607H192V60H275V0H29V60H112V607H29V667H275ZM129 739L-3 855H87L201 739H129Z"  />
<glyph unicode="&#xCD;" horiz-adv-x="305" d="M275 667V607H192V60H275V0H29V60H112V607H29V667H275ZM203 855H293L159 739H89L203 855Z"  />
<glyph unicode="&#xCE;" horiz-adv-x="304" d="M275 667V607H192V60H275V0H29V60H112V607H29V667H275ZM110 857H187L300 739H234L148 817L63 739H-3L110 857Z"  />
<glyph unicode="&#xCF;" horiz-adv-x="305" d="M275 667V607H192V60H275V0H29V60H112V607H29V667H275ZM121 844V751H32V844H121ZM290 844V751H201V844H290Z"  />
<glyph unicode="&#xD0;" horiz-adv-x="625" d="M234 667Q279 667 311 665T367 659T411 646T450 626Q514 585 549 509T585 334Q585 281 574 234T543 147T492 77T425 29Q407 20 390 15T352 6T302 2T234 0H29V60H112V323H29V382H112V607H29V667H234ZM245 61Q276 61 298 62T336 66T366 74T395 88Q446 117 474 181T503 334Q503 427 472 492T384 585Q371 591 358 595T330 602T294 605T245 606H190V382H348V323H190V61H245Z"  />
<glyph unicode="&#xD1;" horiz-adv-x="666" d="M205 667L351 405L425 267Q433 251 438 241T450 218T467 185T497 128L496 256Q496 294 496 315T495 347T495 364T495 378V607H412V667H640V607H557V0H490L332 283L171 585Q171 564 172 524T173 442T174 364T175 313V60H258V0H29V60H112V607H29V667H205ZM155 763Q180 850 245 850Q261 850 275 845T311 827Q337 812 349 807T373 801Q389 801 399 812T419 851L463 833Q438 744 372 744Q356 744 339 750T293 774Q273 785 263 789T243 794Q227 794 218 784T198 745L155 763Z"  />
<glyph unicode="&#xD2;" horiz-adv-x="624" d="M312 681Q374 681 424 657T510 587T565 478T584 334Q584 254 565 190T511 81T425 11T312 -14Q249 -14 198 10T112 80T58 191T39 338Q39 413 59 479T115 591Q149 634 200 657T312 681ZM311 619Q222 619 173 545T123 337Q123 198 172 123T312 48Q402 48 451 122T500 334Q500 470 451 544T311 619ZM278 739L146 855H236L350 739H278Z"  />
<glyph unicode="&#xD3;" horiz-adv-x="624" d="M312 681Q374 681 424 657T510 587T565 478T584 334Q584 254 565 190T511 81T425 11T312 -14Q249 -14 198 10T112 80T58 191T39 338Q39 413 59 479T115 591Q149 634 200 657T312 681ZM311 619Q222 619 173 545T123 337Q123 198 172 123T312 48Q402 48 451 122T500 334Q500 470 451 544T311 619ZM345 855H435L301 739H231L345 855Z"  />
<glyph unicode="&#xD4;" horiz-adv-x="624" d="M312 681Q374 681 424 657T510 587T565 478T584 334Q584 254 565 190T511 81T425 11T312 -14Q249 -14 198 10T112 80T58 191T39 338Q39 413 59 479T115 591Q149 634 200 657T312 681ZM311 619Q222 619 173 545T123 337Q123 198 172 123T312 48Q402 48 451 122T500 334Q500 470 451 544T311 619ZM246 857H323L436 739H370L284 817L199 739H133L246 857Z"  />
<glyph unicode="&#xD5;" horiz-adv-x="624" d="M312 681Q374 681 424 657T510 587T565 478T584 334Q584 254 565 190T511 81T425 11T312 -14Q249 -14 198 10T112 80T58 191T39 338Q39 413 59 479T115 591Q149 634 200 657T312 681ZM311 619Q222 619 173 545T123 337Q123 198 172 123T312 48Q402 48 451 122T500 334Q500 470 451 544T311 619ZM137 763Q162 850 227 850Q243 850 257 845T293 827Q319 812 331 807T355 801Q371 801 381 812T401 851L445 833Q420 744 354 744Q338 744 321 750T275 774Q255 785 245 789T225 794Q209 794 200 784T180 745L137 763Z"  />
<glyph unicode="&#xD6;" horiz-adv-x="624" d="M312 681Q374 681 424 657T510 587T565 478T584 334Q584 254 565 190T511 81T425 11T312 -14Q249 -14 198 10T112 80T58 191T39 338Q39 413 59 479T115 591Q149 634 200 657T312 681ZM311 619Q222 619 173 545T123 337Q123 198 172 123T312 48Q402 48 451 122T500 334Q500 470 451 544T311 619ZM265 844V751H176V844H265ZM434 844V751H345V844H434Z"  />
<glyph unicode="&#xD7;" horiz-adv-x="501" d="M207 332L55 484L98 527L251 375L403 527L446 484L294 332L446 179L403 136L250 288L98 136L55 179L207 332Z"  />
<glyph unicode="&#xD8;" horiz-adv-x="624" d="M632 667L533 554Q559 512 572 455T585 330Q585 251 566 188T512 79T427 10T315 -14Q192 -14 118 75L54 0H-12L89 116Q64 160 52 215T40 337Q40 416 59 479T113 588T197 657T309 681Q430 681 504 595L566 667H632ZM453 538Q403 619 311 619Q223 619 174 544T124 336Q124 291 129 256T147 182L453 538ZM169 132Q219 48 314 48Q402 48 451 123T501 330Q501 376 495 414T476 489L169 132Z"  />
<glyph unicode="&#xD9;" horiz-adv-x="665" d="M269 667V607H186V276Q186 209 191 172T211 112Q229 81 262 65T340 49Q391 49 428 70T482 131Q486 140 488 151T492 179T494 218T495 272V607H412V667H640V607H557V272Q557 225 556 195T552 146T544 113T529 84Q501 36 451 11T334 -14Q262 -14 208 14T130 94Q123 108 119 123T113 158T109 207T108 278V607H25V667H269ZM306 739L174 855H264L378 739H306Z"  />
<glyph unicode="&#xDA;" horiz-adv-x="665" d="M269 667V607H186V276Q186 209 191 172T211 112Q229 81 262 65T340 49Q391 49 428 70T482 131Q486 140 488 151T492 179T494 218T495 272V607H412V667H640V607H557V272Q557 225 556 195T552 146T544 113T529 84Q501 36 451 11T334 -14Q262 -14 208 14T130 94Q123 108 119 123T113 158T109 207T108 278V607H25V667H269ZM370 855H460L326 739H256L370 855Z"  />
<glyph unicode="&#xDB;" horiz-adv-x="665" d="M269 667V607H186V276Q186 209 191 172T211 112Q229 81 262 65T340 49Q391 49 428 70T482 131Q486 140 488 151T492 179T494 218T495 272V607H412V667H640V607H557V272Q557 225 556 195T552 146T544 113T529 84Q501 36 451 11T334 -14Q262 -14 208 14T130 94Q123 108 119 123T113 158T109 207T108 278V607H25V667H269ZM272 857H349L462 739H396L310 817L225 739H159L272 857Z"  />
<glyph unicode="&#xDC;" horiz-adv-x="665" d="M269 667V607H186V276Q186 209 191 172T211 112Q229 81 262 65T340 49Q391 49 428 70T482 131Q486 140 488 151T492 179T494 218T495 272V607H412V667H640V607H557V272Q557 225 556 195T552 146T544 113T529 84Q501 36 451 11T334 -14Q262 -14 208 14T130 94Q123 108 119 123T113 158T109 207T108 278V607H25V667H269ZM290 844V751H201V844H290ZM459 844V751H370V844H459Z"  />
<glyph unicode="&#xDD;" horiz-adv-x="575" d="M246 667V607H172L294 353L419 607H344V667H574V607H489L324 284V60H407V0H163V60H246V281L85 607H1V667H246ZM321 855H411L277 739H207L321 855Z"  />
<glyph unicode="&#xDE;" horiz-adv-x="525" d="M274 607H191V546H236Q275 546 301 545T345 542T377 536T405 525Q453 503 479 459T505 354Q505 292 475 246T391 180Q367 171 337 168T253 164H191V60H280V0H29V60H112V607H29V667H274V607ZM249 225Q295 225 318 227T358 238Q389 252 405 282T422 356Q422 400 405 430T356 474Q348 477 339 479T318 483T288 484T247 485H191V225H249Z"  />
<glyph unicode="&#xDF;" horiz-adv-x="506" d="M220 403H230Q289 403 321 431T354 513Q354 558 329 585T263 613Q235 613 212 600T181 565Q177 556 175 546T171 520T169 482T168 425V0H24V54H95V425Q95 464 96 490T99 536T106 568T117 594Q138 632 176 652T264 673Q301 673 331 662T382 630T416 581T428 518Q428 413 324 377Q396 362 434 311T473 182Q473 140 461 106T427 46T375 6T308 -8Q265 -8 237 9V67Q256 58 268 55T296 51Q343 51 370 85T398 180Q398 259 352 303T220 346V403Z"  />
<glyph unicode="&#xE0;" horiz-adv-x="469" d="M55 325L68 425Q134 482 220 482Q265 482 300 467T355 424Q361 415 365 405T372 380T375 344T376 290V54H446V0H309V70Q289 31 255 11T176 -10Q144 -10 118 0T72 28T42 72T31 127Q31 175 57 210T133 267Q148 274 161 278T192 287T235 297T301 311V329Q301 358 299 372T289 396Q269 425 215 425Q184 425 161 416T126 389Q123 384 121 380T117 369T113 352T108 325H55ZM302 261Q247 250 210 239T150 212T117 178T107 134Q107 96 130 74T191 51Q224 51 250 67T290 112Q296 126 299 153T302 219V261ZM225 549L93 665H183L297 549H225Z"  />
<glyph unicode="&#xE1;" horiz-adv-x="469" d="M55 325L68 425Q134 482 220 482Q265 482 300 467T355 424Q361 415 365 405T372 380T375 344T376 290V54H446V0H309V70Q289 31 255 11T176 -10Q144 -10 118 0T72 28T42 72T31 127Q31 175 57 210T133 267Q148 274 161 278T192 287T235 297T301 311V329Q301 358 299 372T289 396Q269 425 215 425Q184 425 161 416T126 389Q123 384 121 380T117 369T113 352T108 325H55ZM302 261Q247 250 210 239T150 212T117 178T107 134Q107 96 130 74T191 51Q224 51 250 67T290 112Q296 126 299 153T302 219V261ZM272 665H362L228 549H158L272 665Z"  />
<glyph unicode="&#xE2;" horiz-adv-x="469" d="M55 325L68 425Q134 482 220 482Q265 482 300 467T355 424Q361 415 365 405T372 380T375 344T376 290V54H446V0H309V70Q289 31 255 11T176 -10Q144 -10 118 0T72 28T42 72T31 127Q31 175 57 210T133 267Q148 274 161 278T192 287T235 297T301 311V329Q301 358 299 372T289 396Q269 425 215 425Q184 425 161 416T126 389Q123 384 121 380T117 369T113 352T108 325H55ZM302 261Q247 250 210 239T150 212T117 178T107 134Q107 96 130 74T191 51Q224 51 250 67T290 112Q296 126 299 153T302 219V261ZM182 667H259L372 549H306L220 627L135 549H69L182 667Z"  />
<glyph unicode="&#xE3;" horiz-adv-x="469" d="M55 325L68 425Q134 482 220 482Q265 482 300 467T355 424Q361 415 365 405T372 380T375 344T376 290V54H446V0H309V70Q289 31 255 11T176 -10Q144 -10 118 0T72 28T42 72T31 127Q31 175 57 210T133 267Q148 274 161 278T192 287T235 297T301 311V329Q301 358 299 372T289 396Q269 425 215 425Q184 425 161 416T126 389Q123 384 121 380T117 369T113 352T108 325H55ZM302 261Q247 250 210 239T150 212T117 178T107 134Q107 96 130 74T191 51Q224 51 250 67T290 112Q296 126 299 153T302 219V261ZM69 567Q94 654 159 654Q175 654 189 649T225 631Q251 616 263 611T287 605Q303 605 313 616T333 655L377 637Q352 548 286 548Q270 548 253 554T207 578Q187 589 177 593T157 598Q141 598 132 588T112 549L69 567Z"  />
<glyph unicode="&#xE4;" horiz-adv-x="469" d="M55 325L68 425Q134 482 220 482Q265 482 300 467T355 424Q361 415 365 405T372 380T375 344T376 290V54H446V0H309V70Q289 31 255 11T176 -10Q144 -10 118 0T72 28T42 72T31 127Q31 175 57 210T133 267Q148 274 161 278T192 287T235 297T301 311V329Q301 358 299 372T289 396Q269 425 215 425Q184 425 161 416T126 389Q123 384 121 380T117 369T113 352T108 325H55ZM302 261Q247 250 210 239T150 212T117 178T107 134Q107 96 130 74T191 51Q224 51 250 67T290 112Q296 126 299 153T302 219V261ZM178 650V557H89V650H178ZM347 650V557H258V650H347Z"  />
<glyph unicode="&#xE5;" horiz-adv-x="469" d="M55 325L68 425Q134 482 220 482Q265 482 300 467T355 424Q361 415 365 405T372 380T375 344T376 290V54H446V0H309V70Q289 31 255 11T176 -10Q144 -10 118 0T72 28T42 72T31 127Q31 175 57 210T133 267Q148 274 161 278T192 287T235 297T301 311V329Q301 358 299 372T289 396Q269 425 215 425Q184 425 161 416T126 389Q123 384 121 380T117 369T113 352T108 325H55ZM302 261Q247 250 210 239T150 212T117 178T107 134Q107 96 130 74T191 51Q224 51 250 67T290 112Q296 126 299 153T302 219V261ZM219 688Q251 688 273 666T295 612Q295 580 273 558T219 535Q187 535 165 557T142 612Q142 644 164 666T219 688ZM219 652Q202 652 190 641T178 612Q178 595 190 583T219 571Q236 571 247 583T259 612Q259 629 248 640T219 652Z"  />
<glyph unicode="&#xE6;" horiz-adv-x="711" d="M367 229Q369 48 492 48Q540 48 570 76T610 155H668Q665 119 651 89T613 37T558 3T491 -10Q375 -10 326 96Q303 45 264 18T172 -10Q109 -10 70 26T31 121Q31 169 58 206T137 263Q152 269 166 273T198 280T238 285T295 290V316Q295 334 295 345T294 363T292 376T287 387Q270 425 205 425Q126 425 111 384V335H55V426Q119 482 213 482Q267 482 301 466T353 414Q405 482 488 482Q530 482 564 466T623 419T660 347T674 253L673 229H367ZM597 285Q589 425 487 425Q438 425 409 390T371 285H597ZM295 231Q105 228 105 128Q105 94 128 73T186 51Q239 51 267 89T295 199V231Z"  />
<glyph unicode="&#xE7;" horiz-adv-x="433" d="M390 473V316H332Q323 424 235 424Q178 424 146 373T114 233Q114 146 145 97T232 48Q274 48 299 75T332 157H398Q393 85 352 41T247 -9L232 -46Q266 -51 284 -68T302 -113Q302 -147 279 -167T214 -187Q200 -187 187 -185T153 -177V-139Q172 -142 180 -143T196 -144Q220 -144 234 -134T248 -107Q248 -70 190 -70H174L203 -9Q176 -4 163 1T135 14Q87 45 62 101T37 230Q37 285 51 331T90 411T151 463T228 482Q293 482 332 430V473H390Z"  />
<glyph unicode="&#xE8;" horiz-adv-x="460" d="M113 231V216Q113 137 145 92T235 47Q280 47 308 72T345 145H414Q411 110 397 82T359 33T303 2T234 -10Q189 -10 153 7T91 55T51 131T37 230Q37 286 51 332T92 412T156 463T238 482Q280 482 314 466T372 419T409 345T423 250L422 231H113ZM342 284Q339 425 238 425Q188 425 156 388T116 284H342ZM236 549L104 665H194L308 549H236Z"  />
<glyph unicode="&#xE9;" horiz-adv-x="460" d="M113 231V216Q113 137 145 92T235 47Q280 47 308 72T345 145H414Q411 110 397 82T359 33T303 2T234 -10Q189 -10 153 7T91 55T51 131T37 230Q37 286 51 332T92 412T156 463T238 482Q280 482 314 466T372 419T409 345T423 250L422 231H113ZM342 284Q339 425 238 425Q188 425 156 388T116 284H342ZM291 665H381L247 549H177L291 665Z"  />
<glyph unicode="&#xEA;" horiz-adv-x="460" d="M113 231V216Q113 137 145 92T235 47Q280 47 308 72T345 145H414Q411 110 397 82T359 33T303 2T234 -10Q189 -10 153 7T91 55T51 131T37 230Q37 286 51 332T92 412T156 463T238 482Q280 482 314 466T372 419T409 345T423 250L422 231H113ZM342 284Q339 425 238 425Q188 425 156 388T116 284H342ZM199 667H276L389 549H323L237 627L152 549H86L199 667Z"  />
<glyph unicode="&#xEB;" horiz-adv-x="460" d="M113 231V216Q113 137 145 92T235 47Q280 47 308 72T345 145H414Q411 110 397 82T359 33T303 2T234 -10Q189 -10 153 7T91 55T51 131T37 230Q37 286 51 332T92 412T156 463T238 482Q280 482 314 466T372 419T409 345T423 250L422 231H113ZM342 284Q339 425 238 425Q188 425 156 388T116 284H342ZM196 650V557H107V650H196ZM365 650V557H276V650H365Z"  />
<glyph unicode="&#xEC;" horiz-adv-x="271" d="M175 54H247V0H29V54H100V418H29V472H175V54ZM126 549L-6 665H84L198 549H126Z"  />
<glyph unicode="&#xED;" horiz-adv-x="271" d="M175 54H247V0H29V54H100V418H29V472H175V54ZM189 665H279L145 549H75L189 665Z"  />
<glyph unicode="&#xEE;" horiz-adv-x="271" d="M175 54H247V0H29V54H100V418H29V472H175V54ZM105 667H182L295 549H229L143 627L58 549H-8L105 667Z"  />
<glyph unicode="&#xEF;" horiz-adv-x="271" d="M175 54H247V0H29V54H100V418H29V472H175V54ZM109 650V557H20V650H109ZM278 650V557H189V650H278Z"  />
<glyph unicode="&#xF0;" horiz-adv-x="467" d="M203 672Q209 666 213 661T223 651T234 639T250 622L301 663L332 623L283 583Q321 536 342 507T378 453Q430 361 430 243Q430 186 417 139T378 59T317 8T238 -10Q193 -10 156 8T93 58T52 136T37 238Q37 293 51 338T92 415T154 464T235 482Q249 482 259 481T283 476Q276 486 271 493T261 507T249 522T232 542L185 504L154 543L200 582Q189 594 178 607T157 631L203 672ZM233 425Q177 425 145 376T113 242Q113 152 146 100T236 48Q290 48 321 99T353 238Q353 325 321 375T233 425Z"  />
<glyph unicode="&#xF1;" horiz-adv-x="533" d="M172 396Q215 482 305 482Q350 482 383 461T430 404Q433 395 435 387T438 366T439 329T440 267V54H511V0H302V54H365V281Q365 304 365 319T363 345T361 363T356 377Q348 397 330 407T286 418Q259 418 235 405T196 368Q190 358 186 348T179 325T176 295T175 252V54H238V0H29V54H100V418H29V472H172V396ZM108 567Q133 654 198 654Q214 654 228 649T264 631Q290 616 302 611T326 605Q342 605 352 616T372 655L416 637Q391 548 325 548Q309 548 292 554T246 578Q226 589 216 593T196 598Q180 598 171 588T151 549L108 567Z"  />
<glyph unicode="&#xF2;" horiz-adv-x="474" d="M237 484Q278 484 314 468T378 422Q437 358 437 236Q437 115 378 50Q352 21 315 5T237 -12Q196 -12 159 4T96 50Q37 113 37 240Q37 297 52 344T96 422Q122 451 159 467T237 484ZM237 427Q177 427 146 379T114 239Q114 144 145 95T237 46Q297 46 328 95T360 236Q360 329 329 378T237 427ZM236 549L104 665H194L308 549H236Z"  />
<glyph unicode="&#xF3;" horiz-adv-x="474" d="M237 484Q278 484 314 468T378 422Q437 358 437 236Q437 115 378 50Q352 21 315 5T237 -12Q196 -12 159 4T96 50Q37 113 37 240Q37 297 52 344T96 422Q122 451 159 467T237 484ZM237 427Q177 427 146 379T114 239Q114 144 145 95T237 46Q297 46 328 95T360 236Q360 329 329 378T237 427ZM296 665H386L252 549H182L296 665Z"  />
<glyph unicode="&#xF4;" horiz-adv-x="474" d="M237 484Q278 484 314 468T378 422Q437 358 437 236Q437 115 378 50Q352 21 315 5T237 -12Q196 -12 159 4T96 50Q37 113 37 240Q37 297 52 344T96 422Q122 451 159 467T237 484ZM237 427Q177 427 146 379T114 239Q114 144 145 95T237 46Q297 46 328 95T360 236Q360 329 329 378T237 427ZM200 667H277L390 549H324L238 627L153 549H87L200 667Z"  />
<glyph unicode="&#xF5;" horiz-adv-x="474" d="M237 484Q278 484 314 468T378 422Q437 358 437 236Q437 115 378 50Q352 21 315 5T237 -12Q196 -12 159 4T96 50Q37 113 37 240Q37 297 52 344T96 422Q122 451 159 467T237 484ZM237 427Q177 427 146 379T114 239Q114 144 145 95T237 46Q297 46 328 95T360 236Q360 329 329 378T237 427ZM89 567Q114 654 179 654Q195 654 209 649T245 631Q271 616 283 611T307 605Q323 605 333 616T353 655L397 637Q372 548 306 548Q290 548 273 554T227 578Q207 589 197 593T177 598Q161 598 152 588T132 549L89 567Z"  />
<glyph unicode="&#xF6;" horiz-adv-x="474" d="M237 484Q278 484 314 468T378 422Q437 358 437 236Q437 115 378 50Q352 21 315 5T237 -12Q196 -12 159 4T96 50Q37 113 37 240Q37 297 52 344T96 422Q122 451 159 467T237 484ZM237 427Q177 427 146 379T114 239Q114 144 145 95T237 46Q297 46 328 95T360 236Q360 329 329 378T237 427ZM198 650V557H109V650H198ZM367 650V557H278V650H367Z"  />
<glyph unicode="&#xF7;" horiz-adv-x="501" d="M467 362V301H34V362H467ZM294 192V104H206V192H294ZM294 559V471H206V559H294Z"  />
<glyph unicode="&#xF8;" horiz-adv-x="474" d="M482 472L404 389Q437 329 437 237Q437 180 423 134T383 56T319 6T237 -12Q148 -12 93 55L43 0H-15L68 89Q52 121 45 154T38 233Q38 290 52 336T92 416T155 466T238 484Q280 484 316 468T378 423L424 472H482ZM333 374Q299 427 238 427Q180 427 148 378T115 238Q115 214 117 195T124 149L333 374ZM139 104Q173 46 237 46Q296 46 328 96T360 238Q360 264 358 284T349 330L139 104Z"  />
<glyph unicode="&#xF9;" horiz-adv-x="537" d="M166 218Q166 183 166 163T167 132T170 114T175 100Q197 54 253 54Q281 54 306 67T346 104Q358 123 362 147T367 220V418H295V472H442V54H513V0H373V79Q330 -10 237 -10Q188 -10 152 14T101 81Q98 90 96 98T93 120T92 155T91 210V418H20V472H166V218ZM258 549L126 665H216L330 549H258Z"  />
<glyph unicode="&#xFA;" horiz-adv-x="537" d="M166 218Q166 183 166 163T167 132T170 114T175 100Q197 54 253 54Q281 54 306 67T346 104Q358 123 362 147T367 220V418H295V472H442V54H513V0H373V79Q330 -10 237 -10Q188 -10 152 14T101 81Q98 90 96 98T93 120T92 155T91 210V418H20V472H166V218ZM307 665H397L263 549H193L307 665Z"  />
<glyph unicode="&#xFB;" horiz-adv-x="537" d="M166 218Q166 183 166 163T167 132T170 114T175 100Q197 54 253 54Q281 54 306 67T346 104Q358 123 362 147T367 220V418H295V472H442V54H513V0H373V79Q330 -10 237 -10Q188 -10 152 14T101 81Q98 90 96 98T93 120T92 155T91 210V418H20V472H166V218ZM220 667H297L410 549H344L258 627L173 549H107L220 667Z"  />
<glyph unicode="&#xFC;" horiz-adv-x="537" d="M166 218Q166 183 166 163T167 132T170 114T175 100Q197 54 253 54Q281 54 306 67T346 104Q358 123 362 147T367 220V418H295V472H442V54H513V0H373V79Q330 -10 237 -10Q188 -10 152 14T101 81Q98 90 96 98T93 120T92 155T91 210V418H20V472H166V218ZM218 650V557H129V650H218ZM387 650V557H298V650H387Z"  />
<glyph unicode="&#xFD;" horiz-adv-x="500" d="M214 472V418H154L206 257Q209 246 212 236T220 214Q223 203 226 193T233 171L248 122Q250 116 253 105T259 85L285 171Q286 174 289 185T297 210T305 237T312 257L367 418H307V472H499V418H427L282 -14Q270 -49 262 -71T247 -108T232 -134T215 -155Q170 -203 86 -203Q84 -203 78 -203T64 -202V-148Q97 -147 119 -142T158 -124T186 -91T210 -38L219 -12L76 418H1V472H214ZM304 665H394L260 549H190L304 665Z"  />
<glyph unicode="&#xFE;" horiz-adv-x="523" d="M172 400Q217 482 301 482Q341 482 374 464T433 412T472 334T486 236Q486 183 472 138T433 60T375 9T301 -10Q217 -10 172 72V-143H246V-197H29V-143H100V615H29V669H172V400ZM291 425Q235 425 204 376T172 239Q172 147 203 97T292 47Q349 47 380 96T411 236Q411 326 380 375T291 425Z"  />
<glyph unicode="&#xFF;" horiz-adv-x="500" d="M214 472V418H154L206 257Q209 246 212 236T220 214Q223 203 226 193T233 171L248 122Q250 116 253 105T259 85L285 171Q286 174 289 185T297 210T305 237T312 257L367 418H307V472H499V418H427L282 -14Q270 -49 262 -71T247 -108T232 -134T215 -155Q170 -203 86 -203Q84 -203 78 -203T64 -202V-148Q97 -147 119 -142T158 -124T186 -91T210 -38L219 -12L76 418H1V472H214ZM215 650V557H126V650H215ZM384 650V557H295V650H384Z"  />
<glyph unicode="&#x131;" horiz-adv-x="271" d="M175 54H247V0H29V54H100V418H29V472H175V54Z"  />
<glyph unicode="&#x152;" horiz-adv-x="893" d="M791 517V606H568V380H791V319H568V61H800V164H861V0H498V86Q456 32 412 10T307 -13Q245 -13 196 11T111 79T58 187T39 330Q39 409 58 473T112 584T197 655T308 680Q430 680 498 586V667H852V517H791ZM311 618Q267 618 233 598T174 541T136 451T123 332Q123 197 171 123T308 49Q395 49 443 124T492 337Q492 471 445 544T311 618Z"  />
<glyph unicode="&#x153;" horiz-adv-x="770" d="M425 220Q427 138 460 93T551 47Q597 47 627 76T666 158H727Q725 122 711 91T672 38T617 3T549 -10Q439 -10 386 91Q356 38 319 14T230 -10Q188 -10 153 7T92 57T52 133T37 230Q37 285 52 331T93 410T156 463T237 482Q291 482 327 458T389 377Q420 433 456 457T545 482Q587 482 621 465T680 418T719 345T733 252Q733 247 733 239T732 220H425ZM656 276Q655 345 626 385T545 425Q444 425 426 276H656ZM236 425Q180 425 147 374T114 236Q114 148 145 98T231 47Q286 47 318 97T350 235Q350 326 321 375T236 425Z"  />
<glyph unicode="&#x160;" horiz-adv-x="484" d="M426 667V486H373Q369 548 333 582T236 617Q181 617 149 589T116 513Q116 492 121 477T143 448T190 419T269 381Q302 366 323 356T360 337T386 320T408 302Q456 257 456 181Q456 138 442 102T400 41T336 1T252 -13Q198 -13 159 4T86 60V0H31V201H86Q87 129 128 90T243 50Q306 50 340 82T375 171Q375 193 370 210T352 242T319 269T267 295Q226 312 198 324T151 347T118 365T95 382Q34 433 34 507Q34 545 48 576T87 631T148 667T226 680Q317 680 369 616V667H426ZM248 738H171L58 856H124L209 778L295 856H361L248 738Z"  />
<glyph unicode="&#x161;" horiz-adv-x="397" d="M298 321Q296 372 269 400T192 428Q156 428 133 409T110 360Q110 336 127 320T191 285Q220 273 239 265T272 250T296 238T316 225Q365 191 365 130Q365 99 354 74T321 30T272 1T209 -10Q168 -10 139 6T84 57L79 -2H31V158H80Q88 107 122 76T204 45Q242 45 266 65T290 118Q290 131 287 141T273 161T247 178T205 198Q149 221 119 236T76 263Q36 299 36 351Q36 379 47 403T77 445T123 473T181 483Q249 483 295 431L301 475H348V321H298ZM233 549H156L43 667H109L194 589L280 667H346L233 549Z"  />
<glyph unicode="&#x178;" horiz-adv-x="575" d="M246 667V607H172L294 353L419 607H344V667H574V607H489L324 284V60H407V0H163V60H246V281L85 607H1V667H246ZM248 844V751H159V844H248ZM417 844V751H328V844H417Z"  />
<glyph unicode="&#x17D;" horiz-adv-x="475" d="M387 61V168H449V0H20V48L345 606H102V515H40V667H443V618L116 61H387ZM255 738H178L65 856H131L216 778L302 856H368L255 738Z"  />
<glyph unicode="&#x17E;" horiz-adv-x="383" d="M310 56V137H367V0H11V41L262 416H78V348H21V472H356V430L105 56H310ZM229 549H152L39 667H105L190 589L276 667H342L229 549Z"  />
<glyph unicode="&#x192;" horiz-adv-x="501" d="M137 430H236L261 560Q271 609 281 633T308 676Q328 697 357 708T420 720Q466 720 499 704L486 639Q452 663 417 663Q372 663 354 625Q349 616 346 602T335 554L311 430H418V378H301L224 -19Q219 -45 214 -63T204 -94T193 -116T177 -136Q136 -180 65 -180Q19 -180 -13 -164L-1 -98Q36 -123 68 -123Q108 -123 128 -91Q134 -81 138 -66T150 -14L226 378H137V430Z"  />
<glyph unicode="&#x2C6;" horiz-adv-x="500" d="M212 667H289L402 549H336L250 627L165 549H99L212 667Z"  />
<glyph unicode="&#x2C7;" horiz-adv-x="500" d="M289 549H212L99 667H165L250 589L336 667H402L289 549Z"  />
<glyph unicode="&#x2DA;" horiz-adv-x="500" d="M250 688Q282 688 304 666T326 612Q326 580 304 558T250 535Q218 535 196 557T173 612Q173 644 195 666T250 688ZM250 652Q233 652 221 641T209 612Q209 595 221 583T250 571Q267 571 278 583T290 612Q290 629 279 640T250 652Z"  />
<glyph unicode="&#x2DC;" horiz-adv-x="500" d="M98 567Q123 654 188 654Q204 654 218 649T254 631Q280 616 292 611T316 605Q332 605 342 616T362 655L406 637Q381 548 315 548Q299 548 282 554T236 578Q216 589 206 593T186 598Q170 598 161 588T141 549L98 567Z"  />
<glyph unicode="&#x2013;" horiz-adv-x="500" d="M423 282V234H77V282H423Z"  />
<glyph unicode="&#x2014;" horiz-adv-x="573" d="M573 285V232H0V285H573Z"  />
<glyph unicode="&#x2018;" horiz-adv-x="186" d="M39 460V554L109 672H159L81 554H138V460H39Z"  />
<glyph unicode="&#x2019;" horiz-adv-x="186" d="M147 667V573L77 455H27L105 573H48V667H147Z"  />
<glyph unicode="&#x201A;" horiz-adv-x="186" d="M147 94V0L77 -118H27L105 0H48V94H147Z"  />
<glyph unicode="&#x201C;" horiz-adv-x="342" d="M39 460V554L109 672H159L81 554H138V460H39ZM196 460V554L266 672H316L238 554H295V460H196Z"  />
<glyph unicode="&#x201D;" horiz-adv-x="342" d="M147 667V573L77 455H27L105 573H48V667H147ZM303 667V573L233 455H183L261 573H204V667H303Z"  />
<glyph unicode="&#x201E;" horiz-adv-x="342" d="M147 94V0L77 -118H27L105 0H48V94H147ZM303 94V0L233 -118H183L261 0H204V94H303Z"  />
<glyph unicode="&#x2020;" horiz-adv-x="500" d="M285 650V467H427V406H285V-157H214V406H73V467H214V650H285Z"  />
<glyph unicode="&#x2021;" horiz-adv-x="500" d="M285 650V472H427V411H285V235H427V174H285V-157H214V174H73V235H214V411H73V472H214V650H285Z"  />
<glyph unicode="&#x2022;" horiz-adv-x="667" d="M337 477Q365 477 389 466T432 436T462 392T473 339Q473 310 462 285T433 241T389 211T335 200Q306 200 281 211T237 240T207 284T196 338Q196 367 207 392T237 436T281 466T337 477Z"  />
<glyph unicode="&#x2026;" horiz-adv-x="616" d="M154 102V0H51V102H154ZM359 102V0H256V102H359ZM565 102V0H462V102H565Z"  />
<glyph unicode="&#x2030;" horiz-adv-x="880" d="M459 667H515L124 0H68L459 667ZM429 315Q456 315 479 303T519 268T546 217T556 153Q556 120 547 91T520 41T480 7T430 -5Q402 -5 379 7T338 41T311 92T301 156Q301 189 311 217T338 268T379 302T429 315ZM429 263Q399 263 379 232T359 155Q359 108 379 78T429 47Q459 47 478 77T498 154Q498 201 478 232T429 263ZM153 672Q180 672 203 660T243 625T270 574T280 510Q280 477 271 448T244 398T204 364T154 352Q126 352 103 364T62 398T35 449T25 513Q25 546 35 574T62 625T103 659T153 672ZM152 620Q123 620 103 589T83 512Q83 464 102 434T153 404Q183 404 202 434T222 511Q222 558 202 589T152 620ZM728 315Q755 315 778 303T818 268T845 217T855 153Q855 120 846 91T819 41T779 7T729 -5Q701 -5 678 7T637 41T610 92T600 156Q600 189 610 217T637 268T678 302T728 315ZM727 263Q698 263 678 232T658 155Q658 107 678 77T728 47Q758 47 777 77T797 154Q797 201 777 232T727 263Z"  />
<glyph unicode="&#x2039;" horiz-adv-x="210" d="M136 0L31 236L136 472H187L98 236L187 0H136Z"  />
<glyph unicode="&#x203A;" horiz-adv-x="210" d="M75 472L180 236L75 0H24L113 236L24 472H75Z"  />
<glyph unicode="&#x20AC;" horiz-adv-x="501" d="M414 406L394 355H129Q128 349 128 343T128 328Q128 318 128 311T129 294H369L349 243H133Q138 202 153 161Q193 52 288 52Q331 52 365 75T415 139Q424 160 429 189H495Q492 145 476 109T431 47T366 6T285 -9Q187 -9 129 54T52 243H-14L6 294H48Q47 302 47 307T47 320Q47 328 47 336T48 355H-14L6 406H53Q57 430 60 447T68 480T78 508T92 535Q124 595 173 625T285 655Q330 655 365 641T431 594V644H489V463H429Q426 490 422 506T409 538Q394 564 364 579T296 595Q229 595 188 548T134 406H414Z"  />
<glyph unicode="&#x2122;" horiz-adv-x="840" d="M311 667V571H267V628H185V327H237V289H79V327H131V628H50V571H6V667H311ZM484 667L536 515Q548 477 560 441T584 367L609 437Q610 441 612 445T617 458T625 480T639 516L697 667H825V629H773V327H825V289H667V327H719V474Q719 490 719 500T719 524T719 557T720 611Q719 608 715 597T704 569T692 536T681 506Q676 491 672 481T666 465L604 308H552L498 466Q486 502 474 537T450 608V574V549V512V474V327H501V289H353V327H405V629H352V667H484Z"  />

</font>
</defs>
</svg>
